<?xml version="1.0" encoding="UTF-8"?>
<svg version="1.1" xmlns="http://www.w3.org/2000/svg" width="32" height="32" fill="#000">
<path d="M0 0 C356.4 0 712.8 0 32 0 C32 356.4 32 712.8 32 32 C723.6 32 367.2 32 0 32 C0 723.6 0 367.2 0 0 Z "  transform="translate(0,0)"/>
<path d="M0 0 C0.66 0 1.32 0 2 0 C35.33333333 66.66666667 68.66666667 133.33333333 164 324 C164.33056396 324.66080566 164.66112793 325.32161133 165.00170898 326.00244141 C165.66372239 327.32711581 166.32470399 328.6523064 166.98461914 329.97802734 C168.71408684 333.44892842 170.46407986 336.90730817 172.24609375 340.3515625 C172.61283203 341.06699219 172.97957031 341.78242187 173.35742188 342.51953125 C174.05651927 343.8823287 174.76185711 345.24195044 175.47460938 346.59765625 C177.53016655 350.62504118 178.22851217 353.37107299 179 358 C129.5 358 80 358 29 358 C22.90457849 346.41869913 16.83328165 334.85316971 10.98242188 323.15014648 C9.8441675 320.87589618 8.69945811 318.60496044 7.5546875 316.33398438 C6.82513307 314.87779837 6.09595073 313.42142588 5.3671875 311.96484375 C5.0267038 311.29106186 4.68622009 310.61727997 4.3354187 309.92308044 C2 305.22892016 2 305.22892016 2 303 C1.34 303 0.68 303 0 303 C-0.32762329 304.14311646 -0.32762329 304.14311646 -0.66186523 305.30932617 C-2.5177593 310.42801813 -4.96353021 315.19189847 -7.41015625 320.05078125 C-7.93765976 321.10533005 -8.46516327 322.15987885 -9.00865173 323.24638367 C-10.12048934 325.46704543 -11.23426501 327.68673778 -12.34985352 329.90551758 C-14.06404257 333.31556866 -15.77175201 336.72880549 -17.47851562 340.14257812 C-18.55951738 342.29966886 -19.64088479 344.45657641 -20.72265625 346.61328125 C-21.23619156 347.63923904 -21.74972687 348.66519684 -22.27882385 349.72224426 C-22.75279099 350.66379868 -23.22675812 351.60535309 -23.71508789 352.57543945 C-24.13319229 353.40783646 -24.55129669 354.24023346 -24.98207092 355.09785461 C-26 357 -26 357 -27 358 C-28.936283 358.09662973 -30.87614262 358.12187144 -32.81483459 358.12025452 C-34.07833237 358.12162918 -35.34183014 358.12300385 -36.64361572 358.12442017 C-38.05676293 358.12088055 -39.4699099 358.11724574 -40.88305664 358.11352539 C-42.36101784 358.11324353 -43.83897919 358.11340124 -45.31694031 358.1139679 C-49.34155828 358.1142559 -53.36614672 358.1083587 -57.3907578 358.10139394 C-61.59216365 358.09516088 -65.7935701 358.09455664 -69.99497986 358.09336853 C-77.95646257 358.09025507 -85.91793162 358.08204149 -93.8794083 358.07201904 C-102.94092589 358.06085836 -112.00244412 358.05534757 -121.06396687 358.05032361 C-139.709319 358.03985888 -158.35465841 358.02225916 -177 358 C-176.27658462 352.99890256 -174.77456591 349.07026661 -172.4375 344.625 C-171.70681705 343.2006307 -170.97635442 341.77614835 -170.24609375 340.3515625 C-169.87210449 339.6287207 -169.49811523 338.90587891 -169.11279297 338.16113281 C-167.37687491 334.7898413 -165.68975516 331.39459367 -164 328 C-163.33359411 326.66653631 -162.66692673 325.33320327 -162 324 C-161.67 323.34 -161.34 322.68 -161 322 C-128 256 -95 190 0 0 Z " fill="#FDFDFD" transform="translate(539,361)"/>
<path d="M0 0 C-0.59425781 0.63164062 -1.18851563 1.26328125 -1.80078125 1.9140625 C-7.09780499 7.63122343 -12.05272569 13.49692001 -16.81933594 19.66235352 C-19.96654772 23.72115243 -23.21721587 27.66577593 -26.5625 31.5625 C-31.95783895 37.8547995 -37.00875402 44.38470435 -42 51 C-40.515 51.495 -40.515 51.495 -39 52 C-37.24609375 53.70703125 -37.24609375 53.70703125 -35.4375 55.8125 C-34.83808594 56.49957031 -34.23867188 57.18664062 -33.62109375 57.89453125 C-32 60 -32 60 -30.97265625 62.19921875 C-30.07313533 64.35585645 -30.07313533 64.35585645 -27 65 C-25.5625 66.42578125 -25.5625 66.42578125 -24 68.3125 C-21.76407656 70.96106167 -19.49877641 73.56134418 -17.1328125 76.09375 C-16.38837891 76.89171997 -16.38837891 76.89171997 -15.62890625 77.70581055 C-14.63741628 78.76506306 -13.64268942 79.8212963 -12.64453125 80.87426758 C-10.43053565 83.25158433 -9.04105118 84.87684645 -8 88 C-6.515 88.495 -6.515 88.495 -5 89 C-5 89.99 -5 90.98 -5 92 C-4.443125 92.2475 -3.88625 92.495 -3.3125 92.75 C-1 94 -1 94 1.4375 96.0625 C4.08871521 98.06707735 5.74294429 98.62776506 9 99 C7.43466182 104.1220243 4.25375002 107.65803833 0.875 111.6875 C-0.30754023 113.11958645 -1.48983251 114.55187769 -2.671875 115.984375 C-3.24486328 116.67466797 -3.81785156 117.36496094 -4.40820312 118.07617188 C-17.37072561 132.74866208 -17.37072561 132.74866208 -28 149 C-30.9360506 149.43652735 -33.79343781 149.72102623 -36.75 149.9375 C-37.71486328 150.01468262 -38.67972656 150.09186523 -39.67382812 150.17138672 C-43.4480949 150.464179 -47.22374769 150.73439049 -51 151 C-51.85682373 151.0605658 -52.71364746 151.12113159 -53.59643555 151.18353271 C-60.56357343 151.6746803 -67.53152977 152.1531577 -74.5 152.625 C-75.50575073 152.69339081 -76.51150146 152.76178162 -77.54772949 152.83224487 C-80.45872232 153.02901926 -83.36993098 153.22218083 -86.28125 153.4140625 C-87.59425079 153.50297005 -87.59425079 153.50297005 -88.93377686 153.59367371 C-93.63497621 153.89888579 -98.2889271 154.0596439 -103 154 C-101.56418653 150.70405118 -99.7927237 148.56867328 -97.2265625 146.06640625 C-96.4840625 145.33486328 -95.7415625 144.60332031 -94.9765625 143.84960938 C-94.20054687 143.09486328 -93.42453125 142.34011719 -92.625 141.5625 C-86.85823363 135.99059565 -86.85823363 135.99059565 -81.5859375 129.96484375 C-81.06257813 129.31644531 -80.53921875 128.66804687 -80 128 C-79.34 128 -78.68 128 -78 128 C-77.67 127.01 -77.34 126.02 -77 125 C-76.34 125 -75.68 125 -75 125 C-74.75072754 124.42475586 -74.50145508 123.84951172 -74.24462891 123.25683594 C-72.82126077 120.67589928 -71.18451214 118.95787763 -69.0859375 116.890625 C-68.32539062 116.13652344 -67.56484375 115.38242187 -66.78125 114.60546875 C-65.9871875 113.82816406 -65.193125 113.05085937 -64.375 112.25 C-63.57320312 111.45722656 -62.77140625 110.66445313 -61.9453125 109.84765625 C-59.96797154 107.89385507 -57.98611091 105.94487897 -56 104 C-56.56589844 103.52949219 -57.13179687 103.05898438 -57.71484375 102.57421875 C-58.44832031 101.95160156 -59.18179688 101.32898438 -59.9375 100.6875 C-60.66839844 100.07261719 -61.39929688 99.45773437 -62.15234375 98.82421875 C-64 97 -64 97 -65 94 C-65.54914062 93.72800781 -66.09828125 93.45601562 -66.6640625 93.17578125 C-70.10695095 91.44282235 -72.59979791 88.83161535 -75.375 86.1875 C-79.47895231 82.30888152 -83.6459644 78.59627191 -88 75 C-90.28052208 72.77795284 -92.51792343 70.58164906 -94.55078125 68.12890625 C-97.84340124 64.28140821 -97.84340124 64.28140821 -102.44921875 62.5546875 C-104.67584289 62.56167847 -106.79713988 62.6853057 -109 63 C-107.39516194 58.33138019 -105.02509806 53.90741833 -102 50 C-101.34 50 -100.68 50 -100 50 C-99.78214844 49.17113281 -99.56429688 48.34226562 -99.33984375 47.48828125 C-97.67999973 43.16687977 -95.30002275 39.88956305 -92.5625 36.1875 C-89.21859035 31.61802878 -85.97690137 27.06918237 -83.11328125 22.1796875 C-82.65171631 21.4060083 -82.19015137 20.6323291 -81.71459961 19.83520508 C-80.84395347 18.35810559 -79.99804021 16.86604616 -79.18188477 15.3581543 C-77.47650784 12.50631122 -76.14276363 10.47651485 -73.01635742 9.17285156 C-70.34742283 8.60223822 -67.71427776 8.29028897 -65 8 C-63.12359864 7.72253054 -61.24724757 7.44465826 -59.37194824 7.15983582 C-55.77278861 6.6200634 -52.16717753 6.12633015 -48.5625 5.625 C-45.44901583 5.18893756 -42.33578639 4.75108224 -39.22265625 4.3125 C-38.05864792 4.14882431 -38.05864792 4.14882431 -36.87112427 3.98184204 C-31.84484649 3.27152776 -26.8252098 2.52545325 -21.80859375 1.75 C-20.56843506 1.55970215 -19.32827637 1.3694043 -18.05053711 1.17333984 C-15.72884892 0.81478166 -13.40799796 0.45074851 -11.08813477 0.08056641 C-10.05873779 -0.07750488 -9.02934082 -0.23557617 -7.96875 -0.3984375 C-7.07607422 -0.53942871 -6.18339844 -0.68041992 -5.26367188 -0.82568359 C-3 -1 -3 -1 0 0 Z " fill="#030303" transform="translate(587,488)"/>
<path d="M0 0 C0.66 0 1.32 0 2 0 C10.91 17.82 19.82 35.64 29 54 C103.25 54.495 103.25 54.495 179 55 C179.33 54.34 179.66 53.68 180 53 C180.33 53.99 180.66 54.98 181 56 C62.2 56 -56.6 56 -179 56 C-178.67 55.01 -178.34 54.02 -178 53 C-177.67 53.66 -177.34 54.32 -177 55 C-127.5 54.67 -78 54.34 -27 54 C-18.09 36.18 -9.18 18.36 0 0 Z " fill="#1C1C1C" transform="translate(539,664)"/>
<path d="M0 0 C0.33 0.99 0.66 1.98 1 3 C-6.92 10.92 -14.84 18.84 -23 27 C-21.68 27.66 -20.36 28.32 -19 29 C-21.31 29 -23.62 29 -26 29 C-24.56418653 25.70405118 -22.7927237 23.56867328 -20.2265625 21.06640625 C-19.4840625 20.33486328 -18.7415625 19.60332031 -17.9765625 18.84960938 C-17.20054687 18.09486328 -16.42453125 17.34011719 -15.625 16.5625 C-9.85823363 10.99059565 -9.85823363 10.99059565 -4.5859375 4.96484375 C-4.06257813 4.31644531 -3.53921875 3.66804687 -3 3 C-2.34 3 -1.68 3 -1 3 C-0.67 2.01 -0.34 1.02 0 0 Z " fill="#323232" transform="translate(510,613)"/>
<path d="M0 0 C-1.65 1.65 -3.3 3.3 -5 5 C-5.33 3.68 -5.66 2.36 -6 1 C-7.65 1 -9.3 1 -11 1 C-11 0.67 -11 0.34 -11 0 C-3.375 -1.125 -3.375 -1.125 0 0 Z " fill="#fdfdfd" transform="translate(587,488)"/>
</svg>
